PathFileType	4	(X/Y/Z)	/Users/itak/Documents/Research/Walk-IL/dataset/trc/00310_00010.trc
DataRate	CameraRate	NumFrames	NumMarkers	Units	OrigDataRate	OrigDataStartFrame	OrigNumFrames
100.000000	100.000000	4	53	mm	100.000000	392	523
Frame#	Time	RPSI			LPSI			L3			STRN			T10			C7			CLAV			RBAK			LBAK			LSHO			LUPA			LAEL			LAOL			LWTS			LWPS			LFRA			LIFD			LHPS			LHTS			RSHO			RUPA			RAEL			RAOL			RWTS			RWPS			RFRA			RIFD			RHTS			RHPS			RBHD			LFHD			RFHD			LBHD			LHIP			RHIP			RASI			LASI			LKNE			LTHI			LANK			LTIP			LTOE			LMT1			LMT5			LHEE			RKNE			RTHI			RANK			RTIP			RTOE			RMT1			RMT5			RHEE			
		X1	Y1	Z1	X2	Y2	Z2	X3	Y3	Z3	X4	Y4	Z4	X5	Y5	Z5	X6	Y6	Z6	X7	Y7	Z7	X8	Y8	Z8	X9	Y9	Z9	X10	Y10	Z10	X11	Y11	Z11	X12	Y12	Z12	X13	Y13	Z13	X14	Y14	Z14	X15	Y15	Z15	X16	Y16	Z16	X17	Y17	Z17	X18	Y18	Z18	X19	Y19	Z19	X20	Y20	Z20	X21	Y21	Z21	X22	Y22	Z22	X23	Y23	Z23	X24	Y24	Z24	X25	Y25	Z25	X26	Y26	Z26	X27	Y27	Z27	X28	Y28	Z28	X29	Y29	Z29	X30	Y30	Z30	X31	Y31	Z31	X32	Y32	Z32	X33	Y33	Z33	X34	Y34	Z34	X35	Y35	Z35	X36	Y36	Z36	X37	Y37	Z37	X38	Y38	Z38	X39	Y39	Z39	X40	Y40	Z40	X41	Y41	Z41	X42	Y42	Z42	X43	Y43	Z43	X44	Y44	Z44	X45	Y45	Z45	X46	Y46	Z46	X47	Y47	Z47	X48	Y48	Z48	X49	Y49	Z49	X50	Y50	Z50	X51	Y51	Z51	X52	Y52	Z52	X53	Y53	Z53	

393	3.92	617.875244140625	988.1701049804688	471.3414001464844	792.8793334960938	990.905517578125	482.6105041503906	696.9050903320312	1061.612915039062	493.0741882324219	711.91455078125	1238.2587890625	734.9788818359375	688.1062622070312	1167.34912109375	475.4606323242188	719.2205200195312	1412.438354492188	504.5833740234375	720.24853515625	1335.636108398438	667.6350708007812	629.89990234375	1279.458251953125	467.0233459472656	817.7555541992188	1365.094970703125	484.2698669433594	878.417236328125	1373.381591796875	568.28759765625	943.7149658203125	1254.70654296875	532.5771484375	964.5149536132812	1055.5380859375	538.196044921875	891.4158935546875	1033.506713867188	495.7391052246094	966.9862060546875	856.8154296875	663.7058715820312	1012.96435546875	838.0349731445312	611.6235961914062	985.9804077148438	956.2557373046875	560.47607421875	992.175537109375	679.9195556640625	706.0930786132812	1022.068115234375	754.2837524414062	635.9041748046875	1005.279846191406	768.5540771484375	698.0616455078125	566.3832397460938	1405.40576171875	586.3828125	494.2301330566406	1351.039306640625	591.3184204101562	431.21875	1087.0400390625	623.27490234375	511.3495483398438	1069.41162109375	576.5366821289062	490.7275085449219	867.564453125	729.4869995117188	408.9741516113281	867.4500732421875	705.5582275390625	421.6025085449219	1023.987548828125	656.9356079101562	475.6930236816406	682.5520629882812	746.6502685546875	471.0121154785156	754.852294921875	769.4390869140625	408.3814086914062	757.388671875	735.8267211914062	678.6600952148438	1570	507.8797302246094	799.4517211914062	1622.373046875	676.3543090820312	706.521484375	1627.416870117188	671.888671875	823.6474609375	1551.611694335938	516.4314575195312	888.0092163085938	947.9948120117188	551.795654296875	511.6468811035156	931.2836303710938	565.3466796875	575.3289184570312	938.0697021484375	688.438720703125	827.8544921875	949.7589721679688	691.782470703125	842.9791259765625	487.0971984863281	697.718994140625	872.3500366210938	625.8630981445312	666.5553588867188	826.903076171875	43.51587677001953	630.2061767578125	843.1497192382812	253.4411773681641	670.0377197265625	735.3770141601562	32.4055061340332	829.8568115234375	707.9345092773438	27.52079772949219	750.4171752929688	819.7569580078125	35.36272430419922	752.00537109375	773.5947265625	40.73249053955078	577.345703125	509.4443359375	469.8878173828125	634.7435913085938	504.4822998046875	725.7587280273438	632.5850830078125	526.7862548828125	205.728515625	279.9232177734375	516.5545043945312	367.8508605957031	568.276611328125	582.5213623046875	33.39717102050781	363.6881713867188	618.0833129882812	85.21535491943359	333.3231201171875	504.2771606445312	109.0518417358398	318.9825439453125	571.8970336914062	248.8317565917969	249.1946105957031	
394	3.93	620.6103515625	988.3917846679688	474.5452575683594	795.5435180664062	991.22509765625	487.0372924804688	700.1495971679688	1062.321044921875	497.0938110351562	712.3329467773438	1238.3701171875	740.0553588867188	691.8990478515625	1168.264404296875	479.7505493164062	722.8695068359375	1413.493896484375	510.4549560546875	721.4974365234375	1335.986450195312	673.1798706054688	633.990966796875	1280.491088867188	470.9534301757812	821.7227783203125	1366.084350585938	491.4239807128906	880.872802734375	1374.03662109375	576.417236328125	947.2564086914062	1255.394165039062	542.7413330078125	969.4224853515625	1056.51708984375	550.993408203125	897.4696655273438	1033.549072265625	506.9533386230469	970.7496948242188	859.9885864257812	679.2896118164062	1018.040100097656	840.762451171875	628.4987182617188	991.1053466796875	957.836669921875	574.988037109375	996.9057006835938	684.1336669921875	725.3241577148438	1027.460815429688	757.5424194335938	654.4239501953125	1009.233459472656	772.7559814453125	715.9598999023438	568.7227172851562	1406.056640625	589.77490234375	496.4523315429688	1351.763916015625	592.916015625	432.0552368164062	1087.739135742188	621.6461181640625	514.1182861328125	1069.9033203125	578.3035888671875	487.0092163085938	869.7618408203125	732.8946533203125	406.6353454589844	868.2726440429688	704.0305786132812	420.8204650878906	1024.670043945312	655.0484619140625	472.8900756835938	685.026123046875	753.1370239257812	465.8570556640625	757.7626953125	774.01318359375	405.3227233886719	758.8646850585938	736.1725463867188	681.518798828125	1570.7080078125	513.8043823242188	801.7054443359375	1622.729736328125	682.8156127929688	708.789306640625	1627.937622070312	677.9459838867188	826.4463500976562	1552.046508789062	522.9440307617188	890.8457641601562	948.782958984375	556.5213623046875	513.8347778320312	931.947509765625	568.2184448242188	577.1919555664062	938.5298461914062	691.527099609375	829.7272338867188	949.931884765625	696.3380737304688	843.8049926757812	486.7326049804688	700.049072265625	873.4074096679688	625.6886596679688	669.9153442382812	826.8531494140625	43.64282989501953	630.2847900390625	843.5105590820312	253.2449188232422	671.107666015625	735.4317016601562	32.32917022705078	829.9190063476562	707.9091186523438	27.5225658416748	750.4378051757812	819.7037963867188	35.37508010864258	752.0389404296875	773.49755859375	41.01284790039062	577.3828125	511.3944396972656	471.6052856445312	646.3812255859375	506.325439453125	726.9993896484375	637.7827758789062	533.6021118164062	206.4750823974609	292.1737365722656	519.457275390625	369.3374328613281	580.5455932617188	585.7894897460938	35.57228469848633	381.7606201171875	622.4102783203125	85.99159240722656	350.4754333496094	509.4950256347656	111.0905151367188	333.1422424316406	579.9390869140625	248.6265411376953	261.5221557617188	
395	3.94	623.1552124023438	988.6571655273438	477.6522216796875	798.0156860351562	991.5077514648438	491.2347106933594	703.2578125	1063.016967773438	500.9755249023438	712.7888793945312	1238.524291992188	744.8986206054688	695.6021118164062	1169.18994140625	483.8737487792969	726.4274291992188	1414.529052734375	516.1370239257812	722.7352905273438	1336.369750976562	678.4808349609375	637.99072265625	1281.502197265625	474.7471618652344	825.5706787109375	1367.0615234375	498.358642578125	883.2279052734375	1374.747802734375	584.2653198242188	950.65185546875	1256.158935546875	552.6702270507812	974.1263427734375	1057.615356445312	563.701904296875	903.3071899414062	1033.694580078125	518.2425537109375	974.333251953125	863.169921875	694.630126953125	1022.839965820312	843.5682373046875	645.0836181640625	995.992919921875	959.5250854492188	589.3638916015625	1001.295593261719	688.3328857421875	744.0150146484375	1032.515747070312	760.865478515625	672.5249633789062	1012.921630859375	776.9149780273438	733.4370727539062	571.0398559570312	1406.720581054688	593.005615234375	498.7096557617188	1352.508911132812	594.4136352539062	433.0859985351562	1088.471801757812	619.9609985351562	516.9111938476562	1070.454223632812	579.958740234375	483.4288940429688	872.0764770507812	736.0890502929688	404.6554565429688	869.1295776367188	702.4588623046875	420.3101196289062	1025.37646484375	653.0696411132812	470.1670837402344	687.6585693359375	759.3289794921875	460.8874206542969	760.7791748046875	778.2507934570312	402.5707702636719	760.3759765625	736.380859375	684.2716674804688	1571.458251953125	519.6167602539062	803.8115234375	1623.042724609375	689.2146606445312	710.911376953125	1628.397094726562	683.9302978515625	829.1387329101562	1552.549438476562	529.353759765625	893.48828125	949.478759765625	561.0275268554688	515.8799438476562	932.6897583007812	571.0498657226562	578.99951171875	939.06396484375	694.5126953125	831.5367431640625	950.1016845703125	700.6651000976562	844.594970703125	486.4022216796875	702.2945556640625	874.3742065429688	625.5339965820312	673.1149291992188	826.8049926757812	43.77070617675781	630.379150390625	843.8587646484375	253.0804595947266	672.1470947265625	735.48681640625	32.25776672363281	829.9768676757812	707.8909301757812	27.5247917175293	750.4601440429688	819.6572875976562	35.3868293762207	752.073974609375	773.4301147460938	41.29192733764648	577.424072265625	513.4794921875	473.4294128417969	657.7996826171875	508.1195983886719	728.1774291992188	642.5430908203125	540.041015625	206.1833953857422	304.8844299316406	522.4925537109375	370.7279968261719	592.7996826171875	590.0513305664062	37.81504821777344	400.5861511230469	627.261474609375	86.76728820800781	368.1454772949219	515.08544921875	112.1935501098633	348.2452087402344	587.2335205078125	247.5142211914062	274.0164489746094	
396	3.95	625.5139770507812	988.96044921875	480.67431640625	800.3059692382812	991.7618408203125	495.2098999023438	706.2166137695312	1063.695190429688	504.7289428710938	713.2796630859375	1238.723388671875	749.5175170898438	699.20849609375	1170.12890625	487.8387145996094	729.8912963867188	1415.5322265625	521.6216430664062	723.9652099609375	1336.780639648438	683.5379638671875	641.89697265625	1282.489013671875	478.4123229980469	829.302001953125	1368.02392578125	505.067626953125	885.4912719726562	1375.519409179688	591.826416015625	953.9055786132812	1257.005004882812	562.3455200195312	978.6006469726562	1058.835815429688	576.2765502929688	908.883544921875	1033.949340820312	529.566162109375	977.7330322265625	866.36669921875	709.7083129882812	1027.355590820312	846.4498291015625	661.3489990234375	1000.623779296875	961.3253173828125	603.562744140625	1005.353759765625	692.5101928710938	762.1524047851562	1037.232543945312	764.2454833984375	690.1822509765625	1016.350952148438	781.0300903320312	750.4762573242188	573.3414306640625	1407.396728515625	596.090576171875	501.0027770996094	1353.27294921875	595.845703125	434.3073425292969	1089.242431640625	618.2868041992188	519.7103271484375	1071.066040039062	581.5094604492188	480.045654296875	874.4568481445312	739.0238037109375	403.0436401367188	870.0343627929688	700.91064453125	420.0865478515625	1026.114013671875	651.0714111328125	467.4913024902344	690.3986206054688	765.1246337890625	456.1473083496094	763.8416748046875	782.0969848632812	400.1139221191406	761.9278564453125	736.4931640625	686.92431640625	1572.24462890625	525.3078002929688	805.7695922851562	1623.313232421875	695.544921875	712.8876342773438	1628.790405273438	689.8358764648438	831.7311401367188	1553.12451171875	535.6549682617188	895.91259765625	950.0606689453125	565.2918701171875	517.7918090820312	933.4869995117188	573.845947265625	580.7418823242188	939.6621704101562	697.4097290039062	833.2739868164062	950.2796020507812	704.7805786132812	845.3739013671875	486.1109008789062	704.4397583007812	875.2713012695312	625.4060668945312	676.1460571289062	826.7616577148438	43.89719390869141	630.4859008789062	844.2073974609375	252.9497680664062	673.140380859375	735.5420532226562	32.19264984130859	830.03076171875	707.8826904296875	27.52898979187012	750.4853515625	819.6213989257812	35.39636993408203	752.109130859375	773.395263671875	41.56650924682617	577.472900390625	515.6654052734375	475.3305969238281	668.9498901367188	509.8509521484375	729.2730712890625	646.8346557617188	546.069091796875	204.8673095703125	318.0179748535156	525.6226806640625	372.006103515625	604.9859008789062	595.2532348632812	40.0388069152832	419.9885559082031	632.6397094726562	87.51718139648438	386.2018127441406	520.9992065429688	112.3484954833984	364.1614379882812	593.7459106445312	245.5215759277344	286.6553649902344	
